<svg width="27" height="28" viewBox="0 0 27 28" fill="none" xmlns="http://www.w3.org/2000/svg">
<path d="M3.67875 8.12021L13.5 14.0119L23.3212 8.12021M13.5 25.7602V14.0002M23.625 18.6669V9.33354C23.6246 8.92436 23.5204 8.52249 23.323 8.16823C23.1255 7.81398 22.8417 7.5198 22.5 7.31521L14.625 2.64854C14.283 2.44375 13.895 2.33594 13.5 2.33594C13.105 2.33594 12.717 2.44375 12.375 2.64854L4.5 7.31521C4.1583 7.5198 3.87448 7.81398 3.67702 8.16823C3.47956 8.52249 3.3754 8.92436 3.375 9.33354V18.6669C3.3754 19.0761 3.47956 19.4779 3.67702 19.8322C3.87448 20.1864 4.1583 20.4806 4.5 20.6852L12.375 25.3519C12.717 25.5567 13.105 25.6645 13.5 25.6645C13.895 25.6645 14.283 25.5567 14.625 25.3519L22.5 20.6852C22.8417 20.4806 23.1255 20.1864 23.323 19.8322C23.5204 19.4779 23.6246 19.0761 23.625 18.6669Z" stroke="#1E1E1E" stroke-width="2" stroke-linecap="round" stroke-linejoin="round"/>
</svg>
