<svg width="12" height="14" viewBox="0 0 12 14" fill="none" xmlns="http://www.w3.org/2000/svg">
<path d="M11.7002 10.3501C10.4702 11.4001 9.5702 12.5101 8.9852 13.6501H8.5652C7.9802 12.5101 7.0802 11.4001 5.8502 10.3501V9.49512C6.9002 9.97512 7.7102 10.4551 8.2352 10.9351V0.000116587H9.3002V10.9351C9.8252 10.4701 10.6352 9.97512 11.7002 9.49512V10.3501ZM5.8502 3.30012V4.15512C4.7852 3.67512 3.9752 3.18012 3.4502 2.71512V13.6501H2.3852V2.71512C1.8602 3.19512 1.0502 3.67512 0.000195317 4.15512V3.30012C1.2302 2.25012 2.1302 1.14012 2.7152 0.000116587H3.1352C3.7202 1.14012 4.6202 2.25012 5.8502 3.30012Z" fill="black"/>
</svg>
