<svg width="31" height="31" viewBox="0 0 31 31" fill="none" xmlns="http://www.w3.org/2000/svg">
<g clip-path="url(#clip0_497_809)">
<path d="M0.656475 15.3147C0.655754 17.9193 1.33631 20.4625 2.63038 22.7041L0.532715 30.363L8.37067 28.3079C10.5386 29.4881 12.9675 30.1065 15.4358 30.1066H15.4423C23.5906 30.1066 30.2235 23.4761 30.227 15.3264C30.2286 11.3772 28.692 7.66371 25.9003 4.86987C23.1091 2.07626 19.3969 0.536959 15.4417 0.535156C7.2924 0.535156 0.659959 7.16531 0.656595 15.3147" fill="url(#paint0_linear_497_809)"/>
<path d="M0.128566 15.3097C0.127725 18.008 0.832674 20.6422 2.17288 22.964L0 30.8975L8.119 28.7687C10.356 29.9884 12.8747 30.6315 15.4376 30.6324H15.4442C23.8849 30.6324 30.7561 23.7634 30.7597 15.3219C30.7611 11.2309 29.1693 7.38389 26.2779 4.48995C23.3861 1.59638 19.5412 0.00168217 15.4442 0C7.00215 0 0.13193 6.86806 0.128566 15.3097ZM4.96372 22.5642L4.66057 22.0829C3.38621 20.0566 2.71358 17.7151 2.71454 15.3106C2.71719 8.29418 8.42743 2.58574 15.4491 2.58574C18.8494 2.58718 22.0451 3.91273 24.4487 6.31775C26.8521 8.72302 28.1747 11.9203 28.1738 15.321C28.1707 22.3374 22.4603 28.0466 15.4442 28.0466H15.4392C13.1547 28.0454 10.9142 27.4319 8.9602 26.2725L8.4952 25.9967L3.67722 27.2599L4.96372 22.5642Z" fill="url(#paint1_linear_497_809)"/>
<path d="M11.6164 8.90938C11.3297 8.27219 11.028 8.25934 10.7554 8.24816C10.5321 8.23855 10.2769 8.23927 10.022 8.23927C9.76674 8.23927 9.35209 8.33527 9.0016 8.71797C8.65074 9.10102 7.66211 10.0267 7.66211 11.9094C7.66211 13.7921 9.03344 15.6117 9.22461 15.8673C9.41601 16.1224 11.872 20.1096 15.7616 21.6435C18.9943 22.9183 19.6521 22.6647 20.3537 22.6008C21.0554 22.5371 22.6179 21.6754 22.9367 20.7818C23.2557 19.8883 23.2557 19.1224 23.1601 18.9624C23.0644 18.8029 22.8092 18.7072 22.4265 18.5159C22.0438 18.3246 20.1623 17.3987 19.8116 17.271C19.4607 17.1434 19.2056 17.0797 18.9504 17.4629C18.6952 17.8454 17.9624 18.7072 17.739 18.9624C17.5159 19.2182 17.2925 19.25 16.91 19.0586C16.527 18.8666 15.2946 18.463 13.8324 17.1595C12.6948 16.1451 11.9268 14.8925 11.7035 14.5093C11.4803 14.1267 11.6796 13.9194 11.8715 13.7287C12.0434 13.5572 12.2543 13.2818 12.4458 13.0584C12.6366 12.835 12.7003 12.6755 12.8279 12.4203C12.9557 12.1649 12.8917 11.9414 12.7962 11.75C12.7003 11.5586 11.9567 9.66599 11.6164 8.90938Z" fill="white"/>
</g>
<defs>
<linearGradient id="paint0_linear_497_809" x1="1485.25" y1="2983.32" x2="1485.25" y2="0.535156" gradientUnits="userSpaceOnUse">
<stop stop-color="#1FAF38"/>
<stop offset="1" stop-color="#60D669"/>
</linearGradient>
<linearGradient id="paint1_linear_497_809" x1="1537.98" y1="3089.75" x2="1537.98" y2="0" gradientUnits="userSpaceOnUse">
<stop stop-color="#F9F9F9"/>
<stop offset="1" stop-color="white"/>
</linearGradient>
<clipPath id="clip0_497_809">
<rect width="30.7597" height="31" fill="white"/>
</clipPath>
</defs>
</svg>
